<svg width="830" height="150" viewBox="0 0 830 150" fill="none" xmlns="http://www.w3.org/2000/svg">
  <defs>
    <clipPath id="clip"><rect width="830" height="150" rx="16"/></clipPath>
    <linearGradient id="bg" x1="0" y1="0" x2="830" y2="150" gradientUnits="userSpaceOnUse">
      <stop stop-color="#FFFFFF"/>
      <stop offset="1" stop-color="#F0F4FC"/>
    </linearGradient>
    <linearGradient id="mono" x1="28" y1="41" x2="96" y2="109" gradientUnits="userSpaceOnUse">
      <stop stop-color="#2563EB"/>
      <stop offset="1" stop-color="#7C3AED"/>
    </linearGradient>
    <filter id="soft" x="-80%" y="-80%" width="260%" height="260%"><feGaussianBlur stdDeviation="40"/></filter>
  </defs>
  <g clip-path="url(#clip)">
    <rect width="830" height="150" fill="url(#bg)"/>
    <circle cx="810" cy="0" r="100" fill="#3B82F6" opacity="0.10" filter="url(#soft)"/>
  </g>
  <rect x="0.5" y="0.5" width="829" height="149" rx="15.5" stroke="#DEE5F0"/>
  <rect x="28" y="41" width="68" height="68" rx="16" fill="url(#mono)"/>
  <text x="62" y="83" text-anchor="middle" font-family="-apple-system, 'Segoe UI', Roboto, Helvetica, Arial, sans-serif" font-size="21" font-weight="800" fill="#FFFFFF">OSK</text>
  <text x="120" y="62" font-family="-apple-system, 'Segoe UI', Roboto, Helvetica, Arial, sans-serif" font-size="23" font-weight="700" fill="#0F172A">OpenStarterKit</text>
  <text x="800" y="60" text-anchor="end" font-family="-apple-system, 'Segoe UI', Roboto, Helvetica, Arial, sans-serif" font-size="13" font-weight="600" fill="#2563EB">openstarterkit.dev &#8599;</text>
  <text x="120" y="88" font-family="-apple-system, 'Segoe UI', Roboto, Helvetica, Arial, sans-serif" font-size="14" fill="#526581">Free &amp; open-source Next.js SaaS starter kit. Full payments included, no vendor lock-in.</text>
  <g font-family="-apple-system, 'Segoe UI', Roboto, Helvetica, Arial, sans-serif" font-size="11.5" font-weight="600">
    <rect x="120" y="102" width="64" height="24" rx="12" fill="#0F172A" fill-opacity="0.03" stroke="#D8E0EE"/>
    <text x="152" y="118" text-anchor="middle" fill="#3B4A63">Next.js</text>
    <rect x="192" y="102" width="64" height="24" rx="12" fill="#0F172A" fill-opacity="0.03" stroke="#D8E0EE"/>
    <text x="224" y="118" text-anchor="middle" fill="#3B4A63">Auth.js</text>
    <rect x="264" y="102" width="56" height="24" rx="12" fill="#0F172A" fill-opacity="0.03" stroke="#D8E0EE"/>
    <text x="292" y="118" text-anchor="middle" fill="#3B4A63">Stripe</text>
    <rect x="328" y="102" width="58" height="24" rx="12" fill="#0F172A" fill-opacity="0.03" stroke="#D8E0EE"/>
    <text x="357" y="118" text-anchor="middle" fill="#3B4A63">Prisma</text>
    <rect x="394" y="102" width="68" height="24" rx="12" fill="#0F172A" fill-opacity="0.03" stroke="#D8E0EE"/>
    <text x="428" y="118" text-anchor="middle" fill="#3B4A63">Tailwind</text>
  </g>
</svg>
